<svg width="156.000000" height="20.000000" viewBox="0 0 156 20" fill="none" xmlns="http://www.w3.org/2000/svg" xmlns:xlink="http://www.w3.org/1999/xlink">
	<desc>
			Created with Pixso.
	</desc>
	<defs>
		<clipPath id="clip2_950">
			<rect id="logos:mastercard" width="26.000000" height="20.000000" fill="white" fill-opacity="0"/>
		</clipPath>
		<clipPath id="clip2_956">
			<rect id="logos:google-pay" width="29.000000" height="12.000000" transform="translate(97.000000 4.000000)" fill="white" fill-opacity="0"/>
		</clipPath>
		<clipPath id="clip2_962">
			<rect id="logos:paypal" width="10.000000" height="12.000000" transform="translate(146.000000 4.000000)" fill="white" fill-opacity="0"/>
		</clipPath>
		<linearGradient id="paint_linear_2_955_0" x1="1471.189941" y1="35.059174" x2="1747.182373" y2="-985.000916" gradientUnits="userSpaceOnUse">
			<stop stop-color="#222357"/>
			<stop offset="1.000000" stop-color="#254AA5"/>
		</linearGradient>
	</defs>
	<rect id="logos:mastercard" width="26.000000" height="20.000000" fill="#FFFFFF" fill-opacity="0"/>
	<g clip-path="url(#clip2_950)">
		<path id="Vector" d="M4.72 19.9L4.72 18.57C4.72 18.06 4.41 17.73 3.87 17.73C3.61 17.73 3.32 17.82 3.12 18.11C2.96 17.87 2.74 17.73 2.4 17.73C2.18 17.73 1.96 17.8 1.78 18.04L1.78 17.78L1.31 17.78L1.31 19.9L1.78 19.9L1.78 18.73C1.78 18.35 1.98 18.17 2.29 18.17C2.6 18.17 2.76 18.37 2.76 18.73L2.76 19.9L3.23 19.9L3.23 18.73C3.23 18.35 3.45 18.17 3.74 18.17C4.05 18.17 4.21 18.37 4.21 18.73L4.21 19.9L4.72 19.9ZM11.66 17.78L10.9 17.78L10.9 17.14L10.43 17.14L10.43 17.78L10.01 17.78L10.01 18.2L10.43 18.2L10.43 19.17C10.43 19.65 10.63 19.94 11.16 19.94C11.37 19.94 11.59 19.87 11.74 19.79L11.61 19.39C11.48 19.48 11.32 19.5 11.21 19.5C10.99 19.5 10.9 19.37 10.9 19.15L10.9 18.2L11.66 18.2L11.66 17.78ZM15.62 17.73C15.36 17.73 15.18 17.87 15.07 18.04L15.07 17.78L14.6 17.78L14.6 19.9L15.07 19.9L15.07 18.7C15.07 18.35 15.22 18.15 15.51 18.15C15.6 18.15 15.71 18.17 15.8 18.2L15.94 17.76C15.85 17.73 15.71 17.73 15.62 17.73L15.62 17.73ZM9.63 17.95C9.4 17.8 9.09 17.73 8.76 17.73C8.22 17.73 7.87 18 7.87 18.42C7.87 18.77 8.13 18.97 8.6 19.04L8.82 19.06C9.07 19.1 9.2 19.17 9.2 19.28C9.2 19.43 9.02 19.54 8.71 19.54C8.4 19.54 8.16 19.43 8 19.32L7.78 19.68C8.02 19.85 8.36 19.94 8.69 19.94C9.31 19.94 9.67 19.65 9.67 19.26C9.67 18.88 9.38 18.68 8.94 18.62L8.71 18.59C8.51 18.57 8.36 18.53 8.36 18.4C8.36 18.24 8.51 18.15 8.76 18.15C9.02 18.15 9.29 18.26 9.43 18.33L9.63 17.95ZM22.07 17.73C21.8 17.73 21.62 17.87 21.51 18.04L21.51 17.78L21.04 17.78L21.04 19.9L21.51 19.9L21.51 18.7C21.51 18.35 21.67 18.15 21.96 18.15C22.05 18.15 22.16 18.17 22.25 18.2L22.38 17.76C22.29 17.73 22.16 17.73 22.07 17.73ZM16.09 18.84C16.09 19.48 16.54 19.94 17.23 19.94C17.54 19.94 17.76 19.87 17.99 19.7L17.76 19.32C17.59 19.45 17.41 19.52 17.21 19.52C16.83 19.52 16.56 19.26 16.56 18.84C16.56 18.44 16.83 18.17 17.21 18.15C17.41 18.15 17.59 18.22 17.76 18.35L17.99 17.98C17.76 17.8 17.54 17.73 17.23 17.73C16.54 17.73 16.09 18.2 16.09 18.84ZM20.42 18.84L20.42 17.78L19.95 17.78L19.95 18.04C19.79 17.84 19.57 17.73 19.28 17.73C18.68 17.73 18.21 18.2 18.21 18.84C18.21 19.48 18.68 19.94 19.28 19.94C19.59 19.94 19.82 19.83 19.95 19.63L19.95 19.9L20.42 19.9L20.42 18.84ZM18.7 18.84C18.7 18.46 18.95 18.15 19.35 18.15C19.73 18.15 19.99 18.44 19.99 18.84C19.99 19.21 19.73 19.52 19.35 19.52C18.95 19.5 18.7 19.21 18.7 18.84ZM13.1 17.73C12.48 17.73 12.03 18.17 12.03 18.84C12.03 19.5 12.48 19.94 13.13 19.94C13.44 19.94 13.75 19.85 14 19.65L13.77 19.32C13.6 19.45 13.37 19.54 13.15 19.54C12.86 19.54 12.57 19.41 12.5 19.04L14.09 19.04L14.09 18.86C14.11 18.17 13.71 17.73 13.1 17.73ZM13.1 18.13C13.39 18.13 13.6 18.31 13.64 18.64L12.53 18.64C12.57 18.35 12.77 18.13 13.1 18.13ZM24.72 18.84L24.72 16.94L24.25 16.94L24.25 18.04C24.1 17.84 23.87 17.73 23.58 17.73C22.98 17.73 22.51 18.2 22.51 18.84C22.51 19.48 22.98 19.94 23.58 19.94C23.9 19.94 24.12 19.83 24.25 19.63L24.25 19.9L24.72 19.9L24.72 18.84ZM23 18.84C23 18.46 23.25 18.15 23.65 18.15C24.03 18.15 24.3 18.44 24.3 18.84C24.3 19.21 24.03 19.52 23.65 19.52C23.25 19.5 23 19.21 23 18.84ZM7.35 18.84L7.35 17.78L6.88 17.78L6.88 18.04C6.73 17.84 6.51 17.73 6.22 17.73C5.61 17.73 5.15 18.2 5.15 18.84C5.15 19.48 5.61 19.94 6.22 19.94C6.53 19.94 6.75 19.83 6.88 19.63L6.88 19.9L7.35 19.9L7.35 18.84ZM5.61 18.84C5.61 18.46 5.86 18.15 6.26 18.15C6.64 18.15 6.91 18.44 6.91 18.84C6.91 19.21 6.64 19.52 6.26 19.52C5.86 19.5 5.61 19.21 5.61 18.84Z" fill="#151618" fill-opacity="1.000000" fill-rule="nonzero"/>
		<path id="Vector" d="M9.47 1.69L16.49 1.69L16.49 14.18L9.47 14.18L9.47 1.69Z" fill="#FF5F00" fill-opacity="1.000000" fill-rule="nonzero"/>
		<path id="Vector" d="M9.92 7.94C9.92 5.4 11.12 3.15 12.97 1.69C11.61 0.63 9.89 0 8.02 0C3.58 0 0 3.55 0 7.94C0 12.33 3.58 15.88 8.02 15.88C9.89 15.88 11.61 15.24 12.97 14.18C11.12 12.75 9.92 10.47 9.92 7.94Z" fill="#EB001B" fill-opacity="1.000000" fill-rule="nonzero"/>
		<path id="Vector" d="M25.97 7.94C25.97 12.33 22.38 15.88 17.94 15.88C16.07 15.88 14.35 15.24 12.99 14.18C14.87 12.73 16.05 10.47 16.05 7.94C16.05 5.4 14.84 3.15 12.99 1.69C14.35 0.63 16.07 0 17.94 0C22.38 0 25.97 3.57 25.97 7.94Z" fill="#F79E1B" fill-opacity="1.000000" fill-rule="nonzero"/>
	</g>
	<path id="Vector" d="M62.03 8.19C62.01 9.58 63.27 10.36 64.22 10.82C65.2 11.3 65.52 11.6 65.52 12.03C65.51 12.68 64.74 12.96 64.02 12.97C62.76 12.99 62.03 12.63 61.45 12.36L60.99 14.48C61.58 14.75 62.66 14.98 63.78 15C66.41 15 68.13 13.7 68.14 11.69C68.15 9.13 64.61 8.99 64.63 7.85C64.64 7.51 64.97 7.14 65.69 7.04C66.05 7 67.04 6.96 68.16 7.47L68.6 5.42C68 5.21 67.22 5 66.26 5C63.78 5 62.04 6.31 62.03 8.19ZM72.83 5.17C72.35 5.17 71.95 5.45 71.77 5.88L68.01 14.84L70.64 14.84L71.16 13.4L74.37 13.4L74.68 14.84L77 14.84L74.97 5.17L72.83 5.17ZM73.2 7.78L73.96 11.42L71.88 11.42L73.2 7.78ZM58.84 5.17L56.77 14.84L59.27 14.84L61.34 5.17L58.84 5.17ZM55.13 5.17L52.53 11.76L51.47 6.16C51.35 5.53 50.86 5.17 50.32 5.17L46.05 5.17L46 5.45C46.87 5.64 47.86 5.95 48.47 6.28C48.84 6.48 48.94 6.65 49.06 7.13L51.06 14.84L53.71 14.84L57.76 5.17L55.13 5.17Z" fill="url(#paint_linear_2_955_0)" fill-opacity="1.000000" fill-rule="nonzero"/>
	<rect id="logos:google-pay" width="29.000000" height="12.000000" transform="translate(97.000000 4.000000)" fill="#FFFFFF" fill-opacity="0"/>
	<g clip-path="url(#clip2_956)">
		<path id="Vector" d="M117.55 7.23C118.35 7.23 118.97 7.46 119.44 7.91C119.91 8.36 120.12 8.96 120.12 9.72L120.12 13.33L119.11 13.33L119.11 12.5L119.07 12.5C118.64 13.18 118.02 13.52 117.3 13.52C116.68 13.52 116.14 13.33 115.7 12.95C115.31 12.58 115.05 12.05 115.05 11.49C115.05 10.88 115.27 10.39 115.7 10.02C116.14 9.64 116.75 9.49 117.48 9.49C118.13 9.49 118.64 9.6 119.04 9.87L119.04 9.6C119.04 9.25 118.91 8.9 118.66 8.67L118.6 8.63C118.31 8.36 117.95 8.21 117.55 8.21C116.94 8.21 116.46 8.48 116.14 9L115.2 8.4C115.78 7.61 116.54 7.23 117.55 7.23ZM112.44 4.67C113.09 4.67 113.71 4.91 114.2 5.35L114.29 5.43C114.8 5.88 115.05 6.56 115.05 7.27C115.05 7.99 114.8 8.63 114.29 9.12C113.78 9.6 113.17 9.87 112.44 9.87L110.7 9.83L110.7 13.33L109.62 13.33L109.62 4.67L112.44 4.67ZM117.7 10.39C117.26 10.39 116.9 10.51 116.61 10.73C116.32 10.92 116.17 11.19 116.17 11.52C116.17 11.83 116.32 12.09 116.54 12.24C116.79 12.43 117.08 12.54 117.37 12.54C117.78 12.54 118.18 12.38 118.5 12.08L118.57 12.01C118.93 11.67 119.11 11.26 119.11 10.81C118.78 10.55 118.31 10.39 117.7 10.39L117.7 10.39ZM112.51 5.73L110.7 5.73L110.7 8.74L112.51 8.74C112.91 8.74 113.31 8.59 113.57 8.29C114.15 7.72 114.15 6.78 113.6 6.22L113.57 6.18C113.28 5.88 112.91 5.69 112.51 5.73L112.51 5.73ZM126 7.42L122.41 15.96L121.32 15.96L122.66 12.99L120.31 7.46L121.47 7.46L123.17 11.71L123.21 11.71L124.87 7.46L126 7.46L126 7.42Z" fill="#5F6368" fill-opacity="1.000000" fill-rule="nonzero"/>
		<path id="Vector" d="M106.39 9.08C106.39 8.74 106.35 8.4 106.32 8.06L101.79 8.06L101.79 9.98L104.36 9.98C104.25 10.58 103.93 11.15 103.42 11.49L103.42 12.73L104.98 12.73C105.88 11.86 106.39 10.58 106.39 9.08L106.39 9.08Z" fill="#4285F4" fill-opacity="1.000000" fill-rule="nonzero"/>
		<path id="Vector" d="M101.79 13.93C103.09 13.93 104.18 13.48 104.98 12.73L103.42 11.49C102.98 11.79 102.44 11.98 101.79 11.98C100.56 11.98 99.47 11.11 99.11 9.91L97.51 9.91L97.51 11.19C98.34 12.88 99.98 13.93 101.79 13.93Z" fill="#34A853" fill-opacity="1.000000" fill-rule="nonzero"/>
		<path id="Vector" d="M99.11 9.91C98.89 9.3 98.89 8.63 99.11 7.99L99.11 6.71L97.51 6.71C96.82 8.1 96.82 9.76 97.51 11.19L99.11 9.91Z" fill="#FBBC04" fill-opacity="1.000000" fill-rule="nonzero"/>
		<path id="Vector" d="M101.79 5.95C102.48 5.95 103.13 6.22 103.64 6.71L105.01 5.28C104.14 4.45 102.98 3.96 101.82 4C100.01 4 98.35 5.05 97.55 6.74L99.14 8.02C99.47 6.82 100.56 5.95 101.79 5.95Z" fill="#EA4335" fill-opacity="1.000000" fill-rule="nonzero"/>
	</g>
	<rect id="logos:paypal" width="10.000000" height="12.000000" transform="translate(146.000000 4.000000)" fill="#FFFFFF" fill-opacity="0"/>
	<g clip-path="url(#clip2_962)">
		<path id="Vector" d="M154.48 4.93C153.93 4.3 152.95 4.03 151.69 4.03L148.04 4.03C147.91 4.03 147.79 4.07 147.7 4.15C147.6 4.24 147.54 4.35 147.52 4.48L146 14.29C145.97 14.48 146.12 14.66 146.31 14.66L148.57 14.66L149.13 11L149.11 11.12C149.15 10.86 149.37 10.67 149.63 10.67L150.7 10.67C152.81 10.67 154.45 9.8 154.94 7.28C154.95 7.21 154.96 7.14 154.97 7.07C155.12 6.14 154.97 5.5 154.48 4.93Z" fill="#27346A" fill-opacity="1.000000" fill-rule="nonzero"/>
		<path id="Vector" d="M150 6.73C150.06 6.7 150.12 6.68 150.19 6.68L153.06 6.68C153.39 6.68 153.71 6.71 154 6.75C154.08 6.77 154.16 6.78 154.24 6.8C154.36 6.83 154.47 6.86 154.58 6.89C154.72 6.94 154.85 7 154.97 7.07C155.12 6.13 154.97 5.5 154.48 4.93C153.93 4.3 152.95 4.03 151.69 4.03L148.04 4.03C147.78 4.03 147.56 4.22 147.52 4.48L146 14.29C145.97 14.48 146.12 14.66 146.31 14.66L148.57 14.66L149.74 7.08C149.75 7 149.78 6.93 149.83 6.87C149.87 6.81 149.93 6.76 150 6.73Z" fill="#27346A" fill-opacity="1.000000" fill-rule="nonzero"/>
		<path id="Vector" d="M154.94 7.28C154.46 9.8 152.81 10.67 150.7 10.67L149.63 10.67C149.37 10.67 149.15 10.86 149.11 11.12L148.41 15.66C148.38 15.83 148.51 15.98 148.68 15.98L150.58 15.98C150.69 15.98 150.8 15.95 150.88 15.87C150.96 15.8 151.02 15.7 151.03 15.59L151.05 15.49L151.41 13.18L151.43 13.06C151.45 12.95 151.5 12.85 151.59 12.78C151.67 12.7 151.78 12.66 151.89 12.66L152.17 12.66C154.01 12.66 155.45 11.9 155.88 9.7C156.05 8.78 155.96 8.01 155.49 7.47C155.35 7.31 155.18 7.18 154.97 7.07C154.96 7.14 154.95 7.21 154.94 7.28Z" fill="#2790C3" fill-opacity="1.000000" fill-rule="nonzero"/>
		<path id="Vector" d="M154.47 6.86C154.39 6.84 154.32 6.82 154.24 6.8C154.16 6.78 154.08 6.77 154 6.76C153.71 6.71 153.4 6.68 153.06 6.68L150.19 6.68C150.12 6.68 150.06 6.7 150 6.73C149.93 6.76 149.87 6.81 149.83 6.87C149.78 6.93 149.75 7 149.74 7.08L149.13 11L149.12 11.12C149.16 10.86 149.37 10.67 149.63 10.67L150.7 10.67C152.81 10.67 154.46 9.8 154.94 7.28C154.95 7.21 154.96 7.14 154.97 7.07C154.85 7 154.72 6.94 154.58 6.9C154.54 6.88 154.51 6.87 154.47 6.86Z" fill="#1F264F" fill-opacity="1.000000" fill-rule="nonzero"/>
	</g>
</svg>
