<svg width="136.000000" height="60.000000" viewBox="0 0 136 60" fill="none" xmlns="http://www.w3.org/2000/svg" xmlns:xlink="http://www.w3.org/1999/xlink">
	<desc>
			Created with Pixso.
	</desc>
	<defs/>
	<path id="icon" d="M19 1C20.65 1 22 2.34 22 4L22 14C22 15.65 20.65 17 19 17L3 17C1.34 17 0 15.65 0 14L0 4C0 2.34 1.34 1 3 1L19 1ZM18.25 3L3.74 3L10.38 8.23C10.74 8.52 11.25 8.52 11.61 8.23L18.25 3ZM2 4.16L2 14C2 14.55 2.44 15 3 15L19 15C19.55 15 20 14.55 20 14L20 4.16L12.85 9.8C11.76 10.66 10.23 10.66 9.14 9.8L2 4.16Z" fill="#151618" fill-opacity="1.000000" fill-rule="evenodd"/>
	<rect id="+370 680 123457" width="104.000000" height="18.000000" transform="translate(32.000000 0.000000)" fill="#FFFFFF" fill-opacity="0"/>
	<path id="+370 680 123456" d="M60.74 11.39Q60.92 10.49 60.92 9.33Q60.92 7.89 60.64 6.82Q60.35 5.75 59.7 5.16Q59.61 5.08 59.52 5.01Q58.91 4.57 57.97 4.57Q57.04 4.57 56.43 5.01Q56.33 5.08 56.23 5.17Q55.58 5.77 55.29 6.85Q55 7.92 55 9.33Q55 10.91 55.34 11.98Q55.68 13.04 56.34 13.58Q56.49 13.71 56.66 13.81Q57.22 14.12 57.96 14.12Q58.73 14.12 59.28 13.81Q59.36 13.77 59.43 13.72Q59.89 13.42 60.2 12.89Q60.57 12.28 60.74 11.39ZM66.03 8.14Q65.87 9 65.87 10.04Q65.87 10.9 66.07 11.64Q66.26 12.38 66.64 12.94Q66.91 13.33 67.26 13.59Q67.42 13.71 67.6 13.81Q68.17 14.12 68.93 14.12Q69.83 14.12 70.47 13.74Q70.72 13.59 70.92 13.39Q71.24 13.08 71.44 12.66Q71.78 11.97 71.78 11.04Q71.78 10.18 71.46 9.55Q71.27 9.2 71 8.94Q70.79 8.73 70.52 8.59Q69.92 8.25 69.08 8.25Q68.4 8.25 67.9 8.45Q67.4 8.64 67.07 8.95Q66.74 9.27 66.55 9.61L66.51 9.61Q66.55 8.13 66.94 7.13Q67.32 6.16 68.03 5.66Q68.05 5.64 68.08 5.63Q68.82 5.12 69.91 5.12Q70.26 5.12 70.58 5.17Q70.89 5.22 71.12 5.3L71.12 4.71Q70.88 4.64 70.56 4.61Q70.25 4.57 69.9 4.57Q69.09 4.57 68.44 4.8Q67.98 4.97 67.6 5.25Q67.45 5.36 67.31 5.5Q66.83 5.95 66.51 6.62Q66.2 7.28 66.03 8.14ZM86.38 11.39Q86.56 10.49 86.56 9.33Q86.56 7.89 86.27 6.82Q85.99 5.75 85.34 5.16Q85.25 5.08 85.16 5.01Q84.55 4.57 83.61 4.57Q82.68 4.57 82.07 5.01Q81.97 5.08 81.87 5.17Q81.21 5.77 80.93 6.85Q80.64 7.92 80.64 9.33Q80.64 10.91 80.98 11.98Q81.32 13.04 81.98 13.58Q82.13 13.71 82.3 13.81Q82.86 14.12 83.6 14.12Q84.36 14.12 84.92 13.81Q85 13.77 85.07 13.72Q85.53 13.42 85.84 12.89Q86.2 12.28 86.38 11.39ZM128.78 8.14Q128.61 9 128.61 10.04Q128.61 10.9 128.81 11.64Q129 12.38 129.38 12.94Q129.65 13.33 130 13.59Q130.16 13.71 130.34 13.81Q130.91 14.12 131.67 14.12Q132.57 14.12 133.21 13.74Q133.46 13.59 133.66 13.39Q133.98 13.08 134.18 12.66Q134.52 11.97 134.52 11.04Q134.52 10.18 134.2 9.55Q134.01 9.2 133.74 8.94Q133.53 8.73 133.26 8.59Q132.66 8.25 131.82 8.25Q131.14 8.25 130.64 8.45Q130.14 8.64 129.81 8.95Q129.48 9.27 129.29 9.61L129.25 9.61Q129.29 8.13 129.68 7.13Q130.06 6.16 130.77 5.66Q130.79 5.64 130.82 5.63Q131.56 5.12 132.65 5.12Q133 5.12 133.32 5.17Q133.63 5.22 133.86 5.3L133.86 4.71Q133.62 4.64 133.3 4.61Q132.99 4.57 132.64 4.57Q131.83 4.57 131.18 4.8Q130.72 4.97 130.34 5.25Q130.19 5.36 130.05 5.5Q129.57 5.95 129.25 6.62Q128.94 7.28 128.78 8.14ZM45.39 7.94Q45.64 7.47 45.64 6.85Q45.64 6.15 45.33 5.65Q45.17 5.39 44.93 5.19Q44.22 4.58 42.96 4.58Q42.08 4.58 41.36 4.85Q40.65 5.13 40.1 5.55L40.43 6.01Q40.82 5.74 41.22 5.54Q41.44 5.44 41.67 5.36Q41.85 5.29 42.05 5.25Q42.48 5.15 42.96 5.15Q43.88 5.15 44.43 5.58Q44.56 5.69 44.66 5.82Q44.98 6.23 44.98 6.89Q44.98 7.5 44.7 7.92Q44.67 7.96 44.64 8Q44.58 8.08 44.51 8.16Q44.2 8.49 43.74 8.67Q43.17 8.9 42.45 8.9L41.43 8.9L41.43 9.46L42.44 9.46Q43.29 9.46 43.93 9.66Q44.55 9.86 44.9 10.28Q44.9 10.28 44.91 10.28Q44.91 10.29 44.91 10.29Q45.26 10.72 45.26 11.42Q45.26 12.07 44.97 12.55Q44.82 12.79 44.6 12.98Q43.95 13.56 42.6 13.56Q41.92 13.56 41.23 13.4Q40.54 13.23 40.01 12.97L40.01 13.6Q40.55 13.84 41.19 13.98Q41.84 14.12 42.6 14.12Q43.71 14.12 44.45 13.78Q45.11 13.47 45.47 12.96Q45.52 12.89 45.56 12.82Q45.63 12.71 45.69 12.58Q45.93 12.06 45.93 11.43Q45.93 10.63 45.55 10.1Q45.46 9.97 45.35 9.87Q44.77 9.29 43.68 9.15L43.68 9.11Q44.25 9.01 44.69 8.71Q44.91 8.56 45.08 8.38Q45.26 8.18 45.39 7.94ZM77.55 4.84Q76.96 4.58 76.17 4.58Q75.4 4.58 74.8 4.84Q74.3 5.07 73.98 5.44Q73.92 5.51 73.87 5.59Q73.82 5.65 73.78 5.72Q73.53 6.16 73.53 6.75Q73.53 7.37 73.79 7.8Q73.84 7.89 73.9 7.97Q74.14 8.3 74.5 8.54Q74.94 8.85 75.47 9.08Q74.82 9.32 74.31 9.67Q73.86 9.99 73.58 10.41Q73.55 10.46 73.52 10.51Q73.23 11.01 73.23 11.69Q73.23 12.31 73.48 12.8Q73.53 12.89 73.59 12.98Q73.66 13.09 73.75 13.2Q74.09 13.59 74.6 13.82Q75.25 14.12 76.14 14.12Q77 14.12 77.67 13.83Q78.15 13.61 78.48 13.26Q78.61 13.13 78.72 12.97Q78.77 12.9 78.8 12.84Q79.11 12.32 79.11 11.62Q79.11 10.97 78.82 10.49Q78.53 10.02 78.01 9.67Q77.49 9.32 76.79 9.05Q77.39 8.8 77.84 8.48Q78.29 8.16 78.55 7.73Q78.57 7.7 78.58 7.66Q78.8 7.26 78.8 6.74Q78.8 6.1 78.52 5.64Q78.5 5.61 78.47 5.57Q78.41 5.48 78.34 5.4Q78.03 5.04 77.55 4.84ZM98.83 14L104.64 14L104.64 13.4L99.66 13.4L99.66 13.37L102.08 10.87Q102.74 10.19 103.22 9.6Q103.7 9.01 103.97 8.39Q104.23 7.77 104.23 7.01Q104.23 6.28 103.91 5.74L103.91 5.73Q103.78 5.51 103.61 5.33Q103.35 5.06 103 4.88Q102.42 4.58 101.63 4.58Q101.18 4.58 100.73 4.69Q100.28 4.8 99.85 5.02Q99.42 5.24 99.03 5.55L99.39 6Q99.91 5.58 100.47 5.37Q100.7 5.28 100.94 5.23Q101.27 5.15 101.63 5.15Q102.41 5.15 102.9 5.53Q102.98 5.58 103.05 5.65Q103.14 5.73 103.22 5.83Q103.57 6.3 103.57 7.04Q103.57 7.72 103.34 8.28Q103.11 8.83 102.66 9.38Q102.21 9.93 101.56 10.61L98.83 13.45L98.83 14ZM111.51 7.94Q111.76 7.47 111.76 6.85Q111.76 6.15 111.44 5.65Q111.29 5.39 111.05 5.19Q110.34 4.58 109.08 4.58Q108.19 4.58 107.48 4.85Q106.76 5.13 106.22 5.55L106.55 6.01Q106.94 5.74 107.34 5.54Q107.56 5.44 107.79 5.36Q107.97 5.29 108.16 5.25Q108.59 5.15 109.08 5.15Q110 5.15 110.54 5.58Q110.68 5.69 110.78 5.82Q111.09 6.23 111.09 6.89Q111.09 7.5 110.81 7.92Q110.79 7.96 110.76 8Q110.7 8.08 110.63 8.16Q110.32 8.49 109.86 8.67Q109.28 8.9 108.57 8.9L107.55 8.9L107.55 9.46L108.56 9.46Q109.41 9.46 110.04 9.66Q110.67 9.86 111.02 10.28L111.02 10.28L111.03 10.29Q111.37 10.72 111.37 11.42Q111.37 12.07 111.09 12.55Q110.94 12.79 110.72 12.98Q110.07 13.56 108.72 13.56Q108.03 13.56 107.35 13.4Q106.66 13.23 106.13 12.97L106.13 13.6Q106.66 13.84 107.31 13.98Q107.96 14.12 108.71 14.12Q109.83 14.12 110.57 13.78Q111.22 13.47 111.59 12.96Q111.64 12.89 111.68 12.82Q111.75 12.71 111.8 12.58Q112.05 12.06 112.05 11.43Q112.05 10.63 111.66 10.1Q111.58 9.97 111.47 9.87Q110.89 9.29 109.8 9.15L109.8 9.11Q110.37 9.01 110.81 8.71Q111.03 8.56 111.2 8.38Q111.38 8.18 111.51 7.94ZM118.6 11.63L120.2 11.63L120.2 11.04L118.6 11.04L118.6 4.66L117.92 4.66L113.26 11.12L113.26 11.63L117.97 11.63L117.97 14L118.6 14L118.6 11.63ZM52.83 5.31L48.99 14L49.69 14L53.53 5.18L53.53 4.71L47.52 4.71L47.52 5.31L52.83 5.31ZM94.39 14L95.02 14L95.02 4.71L94.48 4.71L91.96 6.6L92.31 7.06L93.68 6.02Q93.93 5.82 94.09 5.69Q94.25 5.57 94.42 5.39Q94.41 5.6 94.4 5.82Q94.39 6.05 94.39 6.33L94.39 14ZM125.56 8.72Q124.88 8.4 123.94 8.4Q123.36 8.4 122.92 8.48Q122.49 8.55 122.2 8.62L122.49 5.31L126.39 5.31L126.39 4.71L121.94 4.71L121.56 8.96L121.93 9.22Q122.34 9.11 122.81 9.04Q123.28 8.97 123.8 8.97Q125.07 8.97 125.7 9.55Q125.84 9.68 125.94 9.82Q126.33 10.36 126.33 11.16Q126.33 11.94 125.99 12.47Q125.88 12.65 125.74 12.8Q125.46 13.1 125.06 13.28Q124.46 13.56 123.64 13.56Q122.97 13.56 122.35 13.39Q121.73 13.21 121.29 12.95L121.29 13.6Q121.7 13.84 122.3 13.98Q122.9 14.12 123.64 14.12Q124.66 14.12 125.41 13.76Q125.92 13.52 126.27 13.13Q126.44 12.94 126.58 12.73Q126.99 12.05 126.99 11.13Q126.99 10.25 126.62 9.64Q126.49 9.44 126.34 9.27Q126.02 8.93 125.56 8.72ZM74.76 5.53Q75.32 5.13 76.16 5.13Q77.09 5.13 77.62 5.54Q77.77 5.66 77.88 5.81Q78.16 6.18 78.16 6.75Q78.16 7.22 77.95 7.57Q77.94 7.59 77.93 7.61Q77.7 7.97 77.26 8.25Q76.83 8.53 76.21 8.78Q75.61 8.56 75.15 8.3Q74.69 8.03 74.43 7.67Q74.4 7.63 74.38 7.59Q74.17 7.25 74.17 6.77Q74.17 6.27 74.4 5.91Q74.53 5.71 74.73 5.56Q74.75 5.55 74.76 5.53ZM55.89 11.69Q55.65 10.76 55.65 9.33Q55.65 8.05 55.87 7.11Q56.08 6.17 56.59 5.65Q56.7 5.55 56.81 5.47Q57.28 5.14 57.97 5.14Q58.73 5.14 59.21 5.51Q59.29 5.57 59.36 5.64Q59.86 6.14 60.07 7.08Q60.27 8.02 60.27 9.33Q60.27 10.75 60.04 11.69Q59.8 12.63 59.29 13.09Q59.2 13.18 59.09 13.25Q58.63 13.56 57.96 13.56Q57.36 13.56 56.92 13.29Q56.78 13.21 56.66 13.09Q56.14 12.63 55.89 11.69ZM81.53 11.69Q81.28 10.76 81.28 9.33Q81.28 8.05 81.5 7.11Q81.72 6.17 82.23 5.65Q82.33 5.55 82.45 5.47Q82.92 5.14 83.61 5.14Q84.37 5.14 84.85 5.51Q84.93 5.57 85 5.64Q85.5 6.14 85.71 7.08Q85.91 8.02 85.91 9.33Q85.91 10.75 85.67 11.69Q85.44 12.63 84.93 13.09Q84.84 13.18 84.73 13.25Q84.27 13.56 83.6 13.56Q83 13.56 82.56 13.29Q82.42 13.21 82.29 13.09Q81.78 12.63 81.53 11.69ZM117.97 7.47L117.97 11.04L113.96 11.04L117.24 6.52Q117.48 6.2 117.63 5.94Q117.79 5.69 117.97 5.38L118.01 5.38Q118 5.61 117.99 5.83Q117.99 6.04 117.98 6.27Q117.97 6.5 117.97 6.79Q117.97 7.08 117.97 7.47ZM38.72 9.13L35.98 9.13L35.98 6.36L35.42 6.36L35.42 9.13L32.69 9.13L32.69 9.68L35.42 9.68L35.42 12.45L35.98 12.45L35.98 9.68L38.72 9.68L38.72 9.13ZM70.24 13.19Q69.71 13.56 68.93 13.56Q68.25 13.56 67.8 13.27Q67.53 13.1 67.33 12.87Q67.18 12.71 67.07 12.53Q66.8 12.07 66.68 11.58Q66.57 11.09 66.57 10.69Q66.57 10.27 66.86 9.83Q67.15 9.39 67.7 9.09Q68.24 8.79 68.99 8.79Q69.94 8.79 70.47 9.26Q70.54 9.33 70.6 9.4Q70.62 9.42 70.65 9.45Q71.13 10.05 71.13 11.04Q71.13 12.25 70.55 12.91Q70.41 13.07 70.24 13.19ZM132.98 13.19Q132.45 13.56 131.67 13.56Q130.99 13.56 130.54 13.27Q130.27 13.1 130.07 12.87Q129.92 12.71 129.81 12.53Q129.54 12.07 129.42 11.58Q129.31 11.09 129.31 10.69Q129.31 10.27 129.6 9.83Q129.89 9.39 130.44 9.09Q130.98 8.79 131.73 8.79Q132.69 8.79 133.21 9.26Q133.28 9.33 133.34 9.4Q133.37 9.42 133.39 9.45Q133.88 10.05 133.88 11.04Q133.88 12.25 133.29 12.91Q133.15 13.07 132.98 13.19ZM74.1 12.61Q73.87 12.21 73.87 11.69Q73.87 11.08 74.15 10.65L74.15 10.64Q74.44 10.21 74.93 9.9Q75.43 9.6 76.07 9.36L76.38 9.48Q77.04 9.72 77.51 10.02Q77.98 10.32 78.22 10.71Q78.25 10.76 78.28 10.82Q78.47 11.17 78.47 11.63Q78.47 12.25 78.18 12.69Q78.04 12.9 77.83 13.07Q77.18 13.58 76.13 13.58Q75.08 13.58 74.47 13.06Q74.24 12.86 74.1 12.61Z" fill="#151618" fill-opacity="1.000000" fill-rule="evenodd"/>
	<path id="icon" d="M15.76 48.72C13.74 48.21 9.6 46.79 5.86 43.04C2.11 39.29 0.68 35.15 0.17 33.13C-0.12 31.97 0.41 30.85 1.29 30.22L3.62 28.55C4.98 27.58 6.88 27.91 7.83 29.29L9.3 31.4C9.92 32.3 9.71 33.54 8.82 34.17L7.65 35.01C7.83 35.68 8.37 37.07 10.1 38.79C11.82 40.52 13.21 41.07 13.89 41.24L14.72 40.08C15.36 39.19 16.59 38.97 17.49 39.59L19.61 41.06C20.98 42.01 21.31 43.91 20.34 45.27L18.68 47.6C18.04 48.49 16.92 49.01 15.76 48.72ZM7.27 41.62C10.68 45.03 14.44 46.33 16.25 46.78C16.51 46.85 16.83 46.74 17.05 46.44L18.71 44.11C19.04 43.65 18.93 43.02 18.47 42.7L16.35 41.24L15.45 42.49C15.09 43.01 14.41 43.41 13.62 43.24C12.64 43.03 10.82 42.34 8.68 40.21C6.55 38.07 5.87 36.25 5.66 35.27C5.49 34.48 5.89 33.81 6.4 33.44L7.65 32.54L6.19 30.43C5.87 29.97 5.24 29.86 4.79 30.18L2.46 31.84C2.15 32.06 2.05 32.38 2.11 32.65C2.57 34.45 3.86 38.21 7.27 41.62Z" fill="#151618" fill-opacity="1.000000" fill-rule="evenodd"/>
	<rect id="info@tealuxe.com" width="105.000000" height="18.000000" transform="translate(30.902344 29.402344)" fill="#FFFFFF" fill-opacity="0"/>
	<path id="info@tealuxe.com" d="M43.6 37.03L45.22 37.03L45.22 36.5L43.6 36.5L43.6 35.72Q43.6 34.81 43.93 34.41Q43.96 34.37 43.99 34.33Q44.32 34 44.98 34Q45.24 34 45.51 34.05Q45.78 34.1 46 34.18L46.15 33.64Q45.9 33.56 45.62 33.5Q45.33 33.45 44.98 33.45Q44.29 33.45 43.84 33.7Q43.7 33.78 43.57 33.9Q43.32 34.12 43.18 34.46Q42.96 34.96 42.96 35.72L42.96 36.48L41.68 36.65L41.68 37.03L42.96 37.03L42.96 43.4L43.6 43.4L43.6 37.03ZM84.08 43.4L84.73 43.4L84.73 33.52L84.08 33.52L84.08 43.4ZM32.69 34.05Q32.57 33.95 32.37 33.95Q32.19 33.95 32.08 34.03Q32.05 34.06 32.03 34.09Q31.91 34.23 31.91 34.47Q31.91 34.71 32.03 34.85Q32.05 34.88 32.08 34.9Q32.19 34.99 32.37 34.99Q32.58 34.99 32.69 34.89Q32.71 34.87 32.73 34.85Q32.84 34.71 32.84 34.47Q32.84 34.23 32.73 34.09Q32.71 34.07 32.69 34.05ZM63.72 40.02Q63.85 39.44 63.85 38.8Q63.85 37.38 63.27 36.35Q62.99 35.84 62.6 35.45Q62.18 35.04 61.65 34.75Q60.6 34.18 59.18 34.18Q57.95 34.18 56.95 34.56Q56.16 34.87 55.54 35.39Q55.38 35.52 55.23 35.67Q55.17 35.73 55.11 35.79Q54.48 36.48 54.13 37.41Q53.74 38.44 53.74 39.72Q53.74 41.25 54.32 42.35Q54.63 42.96 55.1 43.41Q55.48 43.78 55.96 44.05Q57.03 44.65 58.52 44.65Q59.3 44.65 59.97 44.51Q60.64 44.37 61.2 44.13L61.2 43.58Q60.6 43.82 59.91 43.97Q59.49 44.06 59.05 44.1Q58.79 44.12 58.52 44.12Q57.18 44.12 56.24 43.59Q55.85 43.37 55.53 43.07Q55.1 42.65 54.81 42.08Q54.31 41.09 54.31 39.71Q54.31 38.54 54.66 37.62Q54.97 36.77 55.54 36.15Q55.59 36.1 55.64 36.04Q55.79 35.89 55.96 35.75Q56.49 35.31 57.18 35.05Q58.07 34.71 59.18 34.71Q60.46 34.71 61.39 35.21Q61.85 35.46 62.21 35.82Q62.56 36.17 62.8 36.62Q63.29 37.54 63.29 38.8Q63.29 39.57 63.12 40.18Q62.95 40.79 62.62 41.14Q62.48 41.29 62.31 41.37Q62.07 41.49 61.77 41.49Q61.4 41.49 61.18 41.32Q61.09 41.25 61.03 41.17Q60.79 40.84 60.79 40.15Q60.79 39.93 60.8 39.68Q60.82 39.44 60.83 39.2L60.93 37.03Q60.59 36.91 60.12 36.83Q59.66 36.75 59.15 36.75Q58.36 36.75 57.76 37.09Q57.73 37.11 57.7 37.13Q57.44 37.28 57.23 37.49Q56.94 37.78 56.74 38.15Q56.39 38.81 56.39 39.65Q56.39 40.76 56.92 41.38Q57.05 41.53 57.22 41.65Q57.69 41.99 58.41 41.99Q58.86 41.99 59.25 41.84Q59.41 41.77 59.57 41.67Q59.64 41.63 59.7 41.58Q60.11 41.27 60.35 40.72L60.38 40.72Q60.41 41.17 60.64 41.48Q60.7 41.57 60.79 41.65Q60.87 41.73 60.97 41.79Q61.29 41.99 61.73 41.99Q62.22 41.99 62.6 41.79Q62.63 41.76 62.67 41.74Q62.7 41.72 62.74 41.7Q63.09 41.45 63.33 41.04Q63.59 40.6 63.72 40.02ZM68.12 42.93Q67.86 42.97 67.56 42.97Q67.05 42.97 66.77 42.72Q66.71 42.66 66.66 42.59Q66.38 42.2 66.38 41.46L66.38 37.03L68.53 37.03L68.53 36.5L66.38 36.5L66.38 34.83L65.96 34.83L65.73 36.45L64.71 36.65L64.71 37.03L65.74 37.03L65.74 41.5Q65.74 42.19 65.94 42.64Q66.08 42.97 66.33 43.17Q66.42 43.25 66.52 43.31Q66.91 43.52 67.49 43.52Q67.82 43.52 68.09 43.47Q68.37 43.42 68.57 43.35L68.57 42.81Q68.37 42.88 68.12 42.93ZM39.73 36.91Q39.12 36.36 38.02 36.36Q37.4 36.36 36.93 36.55Q36.46 36.74 36.14 37.05Q35.86 37.33 35.68 37.65Q35.66 37.7 35.63 37.75L35.59 37.75L35.5 36.5L34.98 36.5L34.98 43.4L35.62 43.4L35.62 39.6Q35.62 38.26 36.22 37.59Q36.32 37.48 36.43 37.39Q37 36.93 37.96 36.93Q38.78 36.93 39.24 37.34Q39.28 37.37 39.32 37.41Q39.79 37.89 39.79 38.92L39.79 43.4L40.43 43.4L40.43 38.88Q40.43 37.58 39.8 36.97Q39.77 36.94 39.73 36.91ZM52.09 41.39Q52.28 40.74 52.28 39.94Q52.28 38.88 51.95 38.08Q51.7 37.49 51.28 37.09Q51.12 36.94 50.94 36.82Q50.27 36.36 49.27 36.36Q48.3 36.36 47.6 36.79Q47.42 36.91 47.26 37.04Q46.81 37.43 46.53 38.02Q46.16 38.83 46.16 39.94Q46.16 40.74 46.37 41.4Q46.57 42.06 46.96 42.53Q47.14 42.75 47.36 42.93Q47.61 43.13 47.92 43.27Q48.48 43.52 49.2 43.52Q49.97 43.52 50.54 43.26Q50.9 43.1 51.19 42.85Q51.36 42.7 51.5 42.53Q51.89 42.05 52.09 41.39ZM74.13 36.78Q73.54 36.36 72.66 36.36Q71.75 36.36 71.11 36.78Q71.06 36.81 71.01 36.84Q70.86 36.95 70.72 37.08Q70.26 37.51 70 38.15Q69.65 38.97 69.65 40.01Q69.65 41.07 70.01 41.86Q70.24 42.37 70.61 42.73Q70.82 42.93 71.07 43.09Q71.78 43.52 72.83 43.52Q73.49 43.52 74 43.42Q74.51 43.31 75.01 43.09L75.01 42.5Q74.44 42.75 73.96 42.85Q73.49 42.96 72.85 42.96Q71.9 42.96 71.3 42.51Q71.12 42.37 70.97 42.2Q70.31 41.44 70.31 40.01L75.29 40.01L75.29 39.55Q75.29 38.62 75 37.91Q74.79 37.38 74.43 37.02Q74.29 36.89 74.13 36.78ZM105.24 36.78Q104.65 36.36 103.77 36.36Q102.86 36.36 102.22 36.78Q102.17 36.81 102.12 36.84Q101.97 36.95 101.83 37.08Q101.37 37.51 101.11 38.15Q100.76 38.97 100.76 40.01Q100.76 41.07 101.12 41.86Q101.35 42.37 101.72 42.73Q101.93 42.93 102.19 43.09Q102.89 43.52 103.94 43.52Q104.6 43.52 105.11 43.42Q105.62 43.31 106.12 43.09L106.12 42.5Q105.55 42.75 105.07 42.85Q104.6 42.96 103.96 42.96Q103.02 42.96 102.41 42.51Q102.23 42.37 102.08 42.2Q101.42 41.44 101.42 40.01L106.4 40.01L106.4 39.55Q106.4 38.62 106.11 37.91Q105.9 37.38 105.54 37.02Q105.4 36.89 105.24 36.78ZM112.42 43.1Q113.13 43.52 114.16 43.52Q114.72 43.52 115.17 43.43Q115.61 43.33 115.94 43.18L115.94 42.59Q115.57 42.75 115.12 42.85Q114.66 42.95 114.16 42.95Q113.3 42.95 112.74 42.57Q112.58 42.46 112.44 42.32Q112.11 41.99 111.93 41.52Q111.66 40.85 111.66 39.98Q111.66 39.05 111.97 38.37Q112.2 37.88 112.56 37.55Q112.71 37.42 112.88 37.31Q113.47 36.94 114.33 36.94Q114.69 36.94 115.09 37.02Q115.49 37.11 115.85 37.27L116.02 36.7Q115.68 36.54 115.25 36.45Q114.83 36.36 114.33 36.36Q113.32 36.36 112.57 36.8Q112.31 36.95 112.09 37.14Q111.68 37.51 111.41 38.04Q111 38.85 111 39.98Q111 41.07 111.36 41.87Q111.59 42.39 111.97 42.75Q112.18 42.95 112.42 43.1ZM123.1 41.39Q123.29 40.74 123.29 39.94Q123.29 38.88 122.96 38.08Q122.71 37.49 122.29 37.09Q122.13 36.94 121.95 36.82Q121.28 36.36 120.28 36.36Q119.31 36.36 118.61 36.79Q118.43 36.91 118.27 37.04Q117.82 37.43 117.55 38.02Q117.18 38.83 117.18 39.94Q117.18 40.74 117.38 41.4Q117.58 42.06 117.97 42.53Q118.15 42.75 118.37 42.93Q118.62 43.13 118.93 43.27Q119.49 43.52 120.22 43.52Q120.98 43.52 121.55 43.26Q121.91 43.1 122.2 42.85Q122.37 42.7 122.51 42.53Q122.9 42.05 123.1 41.39ZM133.67 36.75Q133.13 36.36 132.31 36.36Q131.48 36.36 130.89 36.71Q130.6 36.89 130.38 37.14Q130.17 37.38 130.03 37.68L129.98 37.68Q129.84 37.21 129.53 36.91Q129.41 36.79 129.26 36.7Q128.75 36.36 128 36.36Q127.43 36.36 127.01 36.54Q126.59 36.72 126.3 37.01Q126.02 37.29 125.85 37.63L125.81 37.63L125.71 36.5L125.19 36.5L125.19 43.4L125.83 43.4L125.83 39.4Q125.83 38.55 126.09 38Q126.29 37.57 126.63 37.31Q126.72 37.25 126.81 37.19Q127.28 36.93 127.92 36.93Q128.4 36.93 128.76 37.13Q128.83 37.17 128.89 37.22Q129.15 37.41 129.32 37.74Q129.52 38.15 129.52 38.79L129.52 43.4L130.15 43.4L130.15 39.31Q130.15 38.08 130.71 37.5Q130.8 37.4 130.92 37.32Q131.44 36.93 132.24 36.93Q132.75 36.93 133.13 37.16Q133.27 37.25 133.4 37.38Q133.84 37.83 133.84 38.79L133.84 43.4L134.47 43.4L134.47 38.76Q134.47 37.52 133.89 36.94Q133.78 36.84 133.67 36.75ZM81.29 36.94Q80.73 36.38 79.6 36.38Q78.97 36.38 78.41 36.53Q77.84 36.68 77.34 36.92L77.55 37.45Q78.05 37.2 78.55 37.06Q79.04 36.92 79.57 36.92Q80.31 36.92 80.72 37.29Q80.77 37.33 80.81 37.37Q81.23 37.82 81.23 38.88L81.23 39.39L79.95 39.45Q78.35 39.52 77.5 40.06Q77.1 40.31 76.88 40.68Q76.65 41.08 76.65 41.62Q76.65 42.23 76.91 42.65Q77 42.8 77.12 42.93Q77.33 43.16 77.64 43.3Q78.11 43.52 78.78 43.52Q79.44 43.52 79.9 43.35Q80.36 43.18 80.68 42.88Q80.76 42.8 80.84 42.71Q81.05 42.48 81.22 42.19L81.25 42.19L81.37 43.4L81.86 43.4L81.86 38.77Q81.86 37.52 81.3 36.95Q81.29 36.95 81.29 36.94ZM32.68 43.4L32.68 36.5L32.04 36.5L32.04 43.4L32.68 43.4ZM92.37 43.4L92.37 36.5L91.73 36.5L91.73 40.31Q91.73 41.19 91.46 41.79Q91.26 42.23 90.93 42.5Q90.81 42.6 90.68 42.67Q90.16 42.97 89.4 42.97Q88.57 42.97 88.11 42.56Q88.07 42.52 88.03 42.48Q87.56 41.99 87.56 40.95L87.56 36.5L86.92 36.5L86.92 41.02Q86.92 41.85 87.19 42.41Q87.35 42.74 87.6 42.96Q87.78 43.13 88 43.25Q88.54 43.52 89.33 43.52Q89.96 43.52 90.43 43.34Q90.9 43.16 91.22 42.85Q91.53 42.54 91.71 42.17Q91.72 42.16 91.72 42.15L91.76 42.15L91.85 43.4L92.37 43.4ZM93.96 36.5L96.36 39.85L93.84 43.4L94.58 43.4L96.75 40.3L98.93 43.4L99.69 43.4L97.15 39.85L99.53 36.5L98.79 36.5L96.75 39.41L94.7 36.5L93.96 36.5ZM71.52 37.2Q72.01 36.92 72.65 36.92Q73.33 36.92 73.76 37.24Q73.81 37.27 73.85 37.31Q74.22 37.62 74.41 38.14Q74.63 38.71 74.63 39.47L70.33 39.47Q70.44 38.23 71.05 37.57Q71.26 37.34 71.52 37.2ZM102.63 37.2Q103.12 36.92 103.76 36.92Q104.44 36.92 104.87 37.24Q104.92 37.27 104.97 37.31Q105.33 37.62 105.52 38.14Q105.74 38.71 105.74 39.47L101.44 39.47Q101.55 38.23 102.16 37.57Q102.37 37.34 102.63 37.2ZM47.08 41.52Q46.82 40.85 46.82 39.94Q46.82 38.53 47.44 37.73Q47.62 37.5 47.85 37.34Q48.41 36.93 49.26 36.93Q50.1 36.93 50.62 37.32Q50.72 37.4 50.82 37.49Q51.19 37.85 51.38 38.39Q51.62 39.07 51.62 39.94Q51.62 40.83 51.37 41.52Q51.16 42.07 50.78 42.43Q50.68 42.51 50.58 42.58Q50.05 42.97 49.22 42.97Q48.4 42.97 47.87 42.58Q47.78 42.52 47.69 42.44Q47.3 42.08 47.08 41.52ZM118.1 41.52Q117.84 40.85 117.84 39.94Q117.84 38.53 118.45 37.73Q118.63 37.5 118.86 37.34Q119.42 36.93 120.27 36.93Q121.11 36.93 121.63 37.32Q121.74 37.4 121.83 37.49Q122.2 37.85 122.39 38.39Q122.63 39.07 122.63 39.94Q122.63 40.83 122.38 41.52Q122.18 42.07 121.79 42.43Q121.7 42.51 121.59 42.58Q121.06 42.97 120.23 42.97Q119.42 42.97 118.89 42.58Q118.79 42.52 118.7 42.44Q118.31 42.08 118.1 41.52ZM57.37 41.03Q56.99 40.56 56.99 39.66Q56.99 38.97 57.25 38.43Q57.4 38.1 57.64 37.85Q57.8 37.7 57.99 37.58Q58.47 37.27 59.16 37.27Q59.51 37.27 59.8 37.31Q60.1 37.35 60.34 37.44L60.25 39.26Q60.19 40.36 59.75 40.92Q59.61 41.1 59.43 41.23Q59.05 41.49 58.48 41.49Q57.93 41.49 57.58 41.23Q57.46 41.14 57.37 41.03ZM80.02 39.94L81.22 39.89L81.22 40.57Q81.22 41.58 80.72 42.21Q80.67 42.27 80.62 42.33Q80.53 42.42 80.44 42.5Q79.86 42.98 78.88 42.98Q78.15 42.98 77.74 42.63Q77.64 42.55 77.57 42.45Q77.33 42.13 77.33 41.63Q77.33 41.2 77.52 40.89Q77.69 40.6 78.02 40.41Q78.7 40 80.02 39.94ZM108.32 42.52Q108.19 42.67 108.19 42.95Q108.19 43.23 108.32 43.38Q108.35 43.41 108.38 43.44Q108.5 43.53 108.69 43.53Q108.94 43.53 109.07 43.41Q109.08 43.39 109.09 43.38Q109.22 43.23 109.22 42.95Q109.22 42.67 109.09 42.52Q109.08 42.51 109.07 42.49Q108.94 42.37 108.69 42.37Q108.49 42.37 108.37 42.47Q108.34 42.49 108.32 42.52Z" fill="#151618" fill-opacity="1.000000" fill-rule="evenodd"/>
</svg>
