<svg width="150.000000" height="22.000000" viewBox="0 0 150 22" fill="none" xmlns="http://www.w3.org/2000/svg" xmlns:xlink="http://www.w3.org/1999/xlink">
	<desc>
			Created with Pixso.
	</desc>
	<defs/>
	<rect id="icon" width="22.000000" height="22.000000" fill="#FFFFFF" fill-opacity="0"/>
	<path id="icon" d="M19 0C20.65 0 22 1.34 22 3L22 19C22 20.65 20.65 22 19 22L3 22C1.34 22 0 20.65 0 19L0 3C0 1.34 1.34 0 3 0L19 0ZM19 2C19.55 2 20 2.44 20 3L20 19C20 19.55 19.55 20 19 20L14 20L14 13L16.07 13C16.5 13 16.88 12.72 17.02 12.31L17.46 10.98C17.62 10.5 17.26 10 16.75 10L14 10L14 8C14 7.5 14.5 7 15 7L17 7C17.55 7 18 6.55 18 6L18 5.31C18 4.99 17.79 4.7 17.48 4.61C16.17 4.27 15 4.27 15 4.27C12.5 4.27 11 6 11 7.5L11 10L9 10C8.44 10 8 10.44 8 11L8 12C8 12.55 8.44 13 9 13L11 13L11 20L3 20C2.44 20 2 19.55 2 19L2 3C2 2.44 2.44 2 3 2L19 2Z" fill="#151618" fill-opacity="1.000000" fill-rule="evenodd"/>
	<rect id="icon" width="24.000000" height="18.000000" transform="translate(42.000000 2.000000)" fill="#FFFFFF" fill-opacity="0"/>
	<path id="icon" d="M42.95 4.06C42 5.37 42 7.25 42 11C42 14.74 42 16.62 42.95 17.93C43.26 18.36 43.63 18.73 44.06 19.04C45.37 20 47.25 20 51 20L57 20C60.74 20 62.62 20 63.93 19.04C64.36 18.73 64.73 18.36 65.04 17.93C66 16.62 66 14.74 66 11C66 7.25 66 5.37 65.04 4.06C64.73 3.63 64.36 3.26 63.93 2.95C62.62 2 60.74 2 57 2L51 2C47.25 2 45.37 2 44.06 2.95C43.63 3.26 43.26 3.63 42.95 4.06ZM57 4L51 4C49.08 4 47.8 4 46.83 4.1C45.9 4.2 45.49 4.38 45.23 4.57C44.98 4.75 44.75 4.98 44.57 5.23C44.38 5.49 44.2 5.9 44.1 6.83C44 7.8 44 9.08 44 11C44 12.91 44 14.19 44.1 15.16C44.2 16.09 44.38 16.5 44.57 16.76C44.75 17.01 44.98 17.24 45.23 17.42C45.49 17.61 45.9 17.79 46.83 17.89C47.8 17.99 49.08 18 51 18L57 18C58.91 18 60.19 17.99 61.16 17.89C62.09 17.79 62.5 17.61 62.76 17.42C63.01 17.24 63.24 17.01 63.42 16.76C63.61 16.5 63.79 16.09 63.89 15.16C63.99 14.19 64 12.91 64 11C64 9.08 63.99 7.8 63.89 6.83C63.79 5.9 63.61 5.49 63.42 5.23C63.24 4.98 63.01 4.75 62.76 4.57C62.5 4.38 62.09 4.2 61.16 4.1C60.19 4 58.91 4 57 4ZM50.49 6.13C50.8 5.95 51.18 5.95 51.49 6.13L58.49 10.13C58.8 10.3 59 10.64 59 11C59 11.35 58.8 11.69 58.49 11.86L51.49 15.86C51.18 16.04 50.8 16.04 50.49 15.86C50.18 15.68 50 15.35 50 15L50 7C50 6.64 50.18 6.31 50.49 6.13ZM52 13.27L55.98 11L52 8.72L52 13.27Z" fill="#0F0F0F" fill-opacity="1.000000" fill-rule="evenodd"/>
	<rect id="icon" width="22.000000" height="22.000000" transform="translate(86.000000 0.000000)" fill="#FFFFFF" fill-opacity="0"/>
	<path id="icon" d="M86 9.6C86 6.23 86 4.55 86.65 3.27C87.22 2.14 88.14 1.22 89.27 0.65C90.55 0 92.23 0 95.6 0L98.39 0C101.76 0 103.44 0 104.72 0.65C105.85 1.22 106.77 2.14 107.34 3.27C108 4.55 108 6.23 108 9.6L108 12.39C108 15.76 108 17.44 107.34 18.72C106.77 19.85 105.85 20.77 104.72 21.34C103.44 22 101.76 22 98.39 22L95.6 22C92.23 22 90.55 22 89.27 21.34C88.14 20.77 87.22 19.85 86.65 18.72C86 17.44 86 15.76 86 12.39L86 9.6ZM95.6 2L98.39 2C100.11 2 101.27 2 102.17 2.07C103.05 2.14 103.5 2.27 103.81 2.43C104.56 2.81 105.18 3.43 105.56 4.18C105.72 4.49 105.85 4.94 105.92 5.82C105.99 6.72 106 7.88 106 9.6L106 12.39C106 14.11 105.99 15.27 105.92 16.17C105.85 17.05 105.72 17.5 105.56 17.81C105.18 18.56 104.56 19.18 103.81 19.56C103.5 19.72 103.05 19.85 102.17 19.92C101.27 19.99 100.11 20 98.39 20L95.6 20C93.88 20 92.72 19.99 91.82 19.92C90.94 19.85 90.49 19.72 90.18 19.56C89.43 19.18 88.81 18.56 88.43 17.81C88.27 17.5 88.14 17.05 88.07 16.17C88 15.27 88 14.11 88 12.39L88 9.6C88 7.88 88 6.72 88.07 5.82C88.14 4.94 88.27 4.49 88.43 4.18C88.81 3.43 89.43 2.81 90.18 2.43C90.49 2.27 90.94 2.14 91.82 2.07C92.72 2 93.88 2 95.6 2ZM103 4C102.44 4 102 4.44 102 5C102 5.55 102.44 6 103 6C103.55 6 104 5.55 104 5C104 4.44 103.55 4 103 4ZM97 17C100.31 17 103 14.31 103 11C103 7.68 100.31 5 97 5C93.68 5 91 7.68 91 11C91 14.31 93.68 17 97 17ZM97 15C99.2 15 101 13.2 101 11C101 8.79 99.2 7 97 7C94.79 7 93 8.79 93 11C93 13.2 94.79 15 97 15Z" fill="#0F0F0F" fill-opacity="1.000000" fill-rule="evenodd"/>
	<rect id="icon" width="22.000069" height="18.000000" transform="translate(128.000000 2.000000)" fill="#FFFFFF" fill-opacity="0"/>
	<path id="icon" d="M146.78 3.2C147.13 3.12 147.37 3.04 147.57 2.96C147.85 2.84 148.08 2.7 148.44 2.47C148.75 2.28 149.14 2.26 149.47 2.43C149.79 2.6 150 2.92 150 3.28C150 4.32 149.86 5.17 149.55 5.93C149.29 6.56 148.92 7.07 148.48 7.54C148.29 10.78 147.32 13.33 145.83 15.26C144.29 17.26 142.23 18.54 140.07 19.26C137.91 19.97 135.63 20.13 133.59 19.89C131.56 19.65 129.69 19 128.38 18.02C128.02 17.75 127.9 17.29 128.08 16.88C128.25 16.48 128.69 16.24 129.14 16.31C130.42 16.48 131.66 16.2 132.68 15.8C132.48 15.69 132.29 15.58 132.11 15.46C131.19 14.84 130.44 14 130.1 13.35C129.96 13.08 129.96 12.77 130.1 12.5C130.17 12.36 130.27 12.24 130.4 12.15C129.04 11.07 128.5 9.58 128.5 8.58C128.5 8.28 128.64 8 128.88 7.82C128.98 7.74 129.1 7.69 129.22 7.65C129.12 7.37 129.04 7.08 128.98 6.8C128.71 5.56 128.74 4.16 129.03 3.04C129.12 2.66 129.45 2.38 129.86 2.32C130.26 2.27 130.66 2.45 130.86 2.79C131.94 4.6 133.93 5.7 135.78 6.35C136.65 6.66 137.45 6.85 138.06 6.97C138.19 5.79 138.53 4.82 139.05 4.05C139.74 3.04 140.7 2.43 141.74 2.16C143.52 1.7 145.5 2.23 146.78 3.2ZM137.74 8.88C137.06 8.75 136.12 8.52 135.09 8.16C133.73 7.68 132.16 6.94 130.84 5.78C130.86 5.99 130.89 6.2 130.94 6.41C131.16 7.44 131.57 8.02 131.94 8.2C132.4 8.42 132.61 8.94 132.43 9.4C132.19 10.02 131.56 10.07 130.99 9.94C131.45 10.6 132.28 11.27 133.66 11.49C134.14 11.56 134.49 11.96 134.5 12.42C134.5 12.89 134.17 13.29 133.69 13.38L132.82 13.55C132.95 13.66 133.1 13.77 133.25 13.88C133.95 14.34 134.65 14.54 135.25 14.4C135.71 14.29 136.18 14.49 136.39 14.89C136.6 15.3 136.49 15.78 136.14 16.07C135.49 16.59 134.74 17 133.99 17.35C133.63 17.51 133.24 17.67 132.81 17.81C133.14 17.88 133.48 17.93 133.84 17.98C135.61 18.19 137.58 18.04 139.42 17.43C141.26 16.82 142.95 15.75 144.22 14.11C145.49 12.46 146.38 10.19 146.5 7.1C146.5 6.86 146.61 6.62 146.79 6.45C147.24 6.02 147.61 5.52 147.79 4.93C147.47 5.03 147.11 5.11 146.68 5.19C146.36 5.25 146.02 5.15 145.79 4.92C145.02 4.19 143.51 3.7 142.25 4.03C141.66 4.18 141.13 4.51 140.72 5.11C140.31 5.72 140 6.66 140 8.1C140 8.37 139.88 8.63 139.67 8.81C139.17 9.25 138.33 8.99 137.74 8.88Z" fill="#0F0F0F" fill-opacity="1.000000" fill-rule="evenodd"/>
</svg>
